# xmcd CD database file
# Copyright (C) 1993-1998 Ti Kan
# 
# Track frame offsets:
#     150
#     16740
#     33767
#     57550
#     75032
#     98512
#     125165
#     145715
#     164475
#     191415
#     212572
#     234330
#     259920
#     269000
# 
# Disc length: 3951 seconds
# 
# Revision: 1
# Processed by: cddbd v1.4b41PL1 Copyright (c) Steve Scherf et al.
# Submitted via: DiscPlay 4.0.4
# 
DISCID=b40f6d0e
DTITLE=The Bridge - The Bridge
DYEAR=1900
DGENRE=
TTITLE0=No Chao
TTITLE1=Pirates In The Net
TTITLE2=The Question Song
TTITLE3=Procura
TTITLE4=Send Me An Ange;
TTITLE5=The Way We Feel Now
TTITLE6=Gone
TTITLE7=On The Wing
TTITLE8=Love May Never Last Forever
TTITLE9=Somethin' Else
TTITLE10=Change On Change
TTITLE11=Candles In The Dark
TTITLE12=Quando Chuva
TTITLE13=One Planet, One People
EXTD=
EXTT0=
EXTT1=
EXTT2=
EXTT3=
EXTT4=
EXTT5=
EXTT6=
EXTT7=
EXTT8=
EXTT9=
EXTT10=
EXTT11=
EXTT12=
EXTT13=
PLAYORDER=
